<?xml version="1.0" encoding="utf-8"?>
<svg viewBox="0 0 5028 611" shape-rendering="geometricPrecision" text-rendering="geometricPrecision" image-rendering="optimizeQuality" fill-rule="evenodd" clip-rule="evenodd" xmlns="http://www.w3.org/2000/svg">
  <g id="Layer_x0020_1">
    <polygon fill="#FFFFFF" points="5,20 5,587 59,587 59,312 396,312 396,587 450,587 450,20 396,20 396,266 59,266 59,20 "/>
    <polygon fill="none" stroke="#FFFFFF" stroke-width="10.4409" points="5,20 5,587 59,587 59,312 396,312 396,587 450,587 450,20 396,20 396,266 59,266 59,20 "/>
    <polygon fill="#FFFFFF" points="2418,587 2472,587 2472,20 2418,20 "/>
    <polygon fill="none" stroke="#FFFFFF" stroke-width="10.4409" points="2418,587 2472,587 2472,20 2418,20 "/>
    <path fill="#FFFFFF" d="M3448 304c0,39 6,76 17,112 11,35 28,67 50,94 22,27 50,49 83,65 34,16 73,24 117,24 44,0 83,-8 117,-24 33,-16 61,-38 83,-65 22,-27 39,-58 50,-94 11,-35 17,-73 17,-112 0,-39 -6,-76 -17,-112 -11,-35 -28,-67 -50,-94 -22,-28 -50,-49 -83,-65 -33,-16 -72,-25 -117,-25 -44,0 -84,8 -117,25 -33,16 -61,38 -83,65 -22,27 -39,58 -50,94 -11,35 -17,73 -17,112zm54 0c0,-31 4,-62 12,-91 8,-30 21,-56 38,-79 17,-24 40,-43 67,-57 27,-14 59,-21 97,-21 38,0 70,7 96,21 27,14 49,33 66,57 17,23 30,50 38,79 8,30 13,60 13,91 0,31 -4,61 -13,91 -8,30 -21,56 -38,80 -17,23 -39,42 -66,56 -26,14 -58,21 -96,21 -38,0 -70,-7 -97,-21 -27,-14 -49,-33 -67,-56 -17,-24 -30,-51 -38,-80 -8,-30 -12,-61 -12,-91z"/>
    <path fill="none" stroke="#FFFFFF" stroke-width="10.4409" d="M3448 304c0,39 6,76 17,112 11,35 28,67 50,94 22,27 50,49 83,65 34,16 73,24 117,24 44,0 83,-8 117,-24 33,-16 61,-38 83,-65 22,-27 39,-58 50,-94 11,-35 17,-73 17,-112 0,-39 -6,-76 -17,-112 -11,-35 -28,-67 -50,-94 -22,-28 -50,-49 -83,-65 -33,-16 -72,-25 -117,-25 -44,0 -84,8 -117,25 -33,16 -61,38 -83,65 -22,27 -39,58 -50,94 -11,35 -17,73 -17,112zm54 0c0,-31 4,-62 12,-91 8,-30 21,-56 38,-79 17,-24 40,-43 67,-57 27,-14 59,-21 97,-21 38,0 70,7 96,21 27,14 49,33 66,57 17,23 30,50 38,79 8,30 13,60 13,91 0,31 -4,61 -13,91 -8,30 -21,56 -38,80 -17,23 -39,42 -66,56 -26,14 -58,21 -96,21 -38,0 -70,-7 -97,-21 -27,-14 -49,-33 -67,-56 -17,-24 -30,-51 -38,-80 -8,-30 -12,-61 -12,-91z"/>
    <polygon fill="#FFFFFF" points="4586,20 4586,66 4783,66 4783,587 4837,587 4837,66 5034,66 5034,20 "/>
    <polygon fill="none" stroke="#FFFFFF" stroke-width="10.4409" points="4586,20 4586,66 4783,66 4783,587 4837,587 4837,66 5034,66 5034,20 "/>
    <path fill="#FFFFFF" d="M1514 16l0 577 70 0 0 -322c0,-31 3,-59 10,-84 7,-26 17,-48 30,-67 14,-19 32,-34 54,-45 22,-11 48,-17 78,-17 22,0 41,4 57,11 16,7 28,18 37,31 10,13 16,28 20,46 4,17 7,35 7,55l0 391 70 0 0 -327c0,-27 2,-53 7,-77 5,-25 14,-48 26,-67 12,-19 28,-35 48,-46 20,-12 45,-18 76,-18 51,0 86,13 106,38 20,25 30,61 30,108l0 388 70 0 0 -391c0,-135 -64,-202 -191,-202 -38,0 -74,9 -107,28 -34,19 -59,47 -76,85 -10,-38 -31,-66 -63,-85 -31,-19 -65,-28 -103,-28 -47,0 -86,10 -116,30 -30,20 -54,48 -73,84l-3 0 0 -97 -65 0z"/>
    <path fill="#FFFFFF" d="M2573 16l0 577 70 0 0 -322c0,-31 3,-59 10,-84 7,-26 17,-48 30,-67 14,-19 32,-34 54,-45 22,-11 48,-17 78,-17 22,0 41,4 57,11 16,7 28,18 37,31 10,13 16,28 20,46 4,17 7,35 7,55l0 391 70 0 0 -327c0,-27 2,-53 7,-77 5,-25 14,-48 26,-67 12,-19 28,-35 48,-46 20,-12 45,-18 76,-18 51,0 86,13 106,38 20,25 30,61 30,108l0 388 70 0 0 -391c0,-135 -64,-202 -191,-202 -38,0 -74,9 -107,28 -34,19 -59,47 -76,85 -10,-38 -31,-66 -63,-85 -31,-19 -65,-28 -103,-28 -47,0 -86,10 -116,30 -30,20 -54,48 -73,84l-3 0 0 -97 -65 0z"/>
    <path fill="#FFFFFF" d="M4064 16l0 577 70 0 0 -337c1,-28 5,-54 13,-78 9,-25 21,-45 36,-63 16,-18 34,-32 56,-41 22,-10 48,-16 76,-16 28,0 52,4 70,13 19,9 35,21 46,37 11,16 19,34 24,56 4,21 7,44 7,68l0 360 70 0 0 -371c0,-34 -3,-65 -10,-93 -7,-28 -18,-51 -35,-69 -16,-19 -38,-34 -66,-45 -27,-10 -60,-16 -101,-16 -41,0 -79,11 -113,32 -34,21 -58,49 -72,84l-2 0 0 -100 -70 0z"/>
  </g>
  <g id="g-1" transform="matrix(1, 0, 0, 1, 1.4592000477981628, -2.8987260325546913)">
    <path class="logo-icon" fill="#FFFFFF" d="M900 466c30,-41 26,-108 26,-137 -37,-1 -135,-5 -195,2 -31,3 -94,12 -119,52 -15,19 -28,72 -4,112 17,30 36,40 72,52 40,10 92,3 124,-4 50,-17 78,-47 96,-76zm96 -136c-2,30 0,59 7,86 7,27 18,51 33,72 15,20 35,36 60,49 24,12 53,18 86,18 47,0 84,-13 112,-38 28,-25 47,-60 57,-105l70 0c-15,65 -43,115 -85,149 -42,34 -97,51 -164,51 -51,0 -94,-11 -130,-34 -35,-24 -54,-47 -78,-92 0,0 -17,29 -33,46 -15,18 -35,32 -57,44 -22,12 -46,21 -73,27 -27,6 -52,9 -77,9 -27,0 -52,-3 -75,-10 -23,-6 -43,-15 -61,-29 -17,-14 -31,-31 -41,-52 -10,-21 -14,-46 -14,-75 0,-40 9,-71 27,-93 18,-23 41,-40 70,-52 29,-12 62,-20 98,-24 37,-5 139,-4 155,-6 23,-3 36,-11 45,-34 9,-23 8,-66 -10,-109 -7,-15 -18,-28 -32,-36 -13,-9 -29,-15 -48,-18 -18,-4 -37,-6 -57,-6 -44,0 -80,11 -108,32 -28,21 -43,54 -44,101l-70 0c2,-33 9,-62 21,-86 12,-24 28,-44 48,-60 21,-15 45,-27 72,-34 27,-7 57,-11 91,-11 19,0 39,2 60,6 21,3 41,9 59,18 18,8 34,20 46,35 13,15 22,35 25,60l2 0c7,-20 18,-37 32,-52 14,-15 30,-27 48,-36 18,-10 38,-18 59,-22 21,-5 41,-8 62,-8 47,0 86,9 117,27 32,18 57,42 76,72 19,29 33,64 41,103 8,38 12,78 12,119l-429 0zm359 -59c0,-27 -4,-52 -13,-76 -8,-24 -20,-46 -35,-64 -15,-19 -34,-34 -56,-45 -22,-12 -47,-18 -75,-18 -29,0 -55,6 -77,17 -22,11 -41,26 -56,45 -15,18 -27,40 -35,65 -7,24 -11,50 -10,76l359 0z"/>
  </g>
</svg>