<?xml version="1.0" standalone="no"?>
<!DOCTYPE svg PUBLIC "-//W3C//DTD SVG 20010904//EN"
 "http://www.w3.org/TR/2001/REC-SVG-20010904/DTD/svg10.dtd">
<svg version="1.0" xmlns="http://www.w3.org/2000/svg"
 width="494.000000pt" height="730.000000pt" viewBox="0 0 494.000000 730.000000"
 preserveAspectRatio="xMidYMid meet">

<g transform="translate(0.000000,730.000000) scale(0.100000,-0.100000)"
fill="#FFFFFF" stroke="none">
<path d="M2139 6529 c-67 -7 -167 -30 -304 -70 -353 -102 -625 -253 -824 -458
-105 -108 -219 -243 -256 -301 -103 -162 -215 -389 -254 -510 -22 -70 -66
-281 -76 -370 -4 -30 -9 -59 -12 -64 -4 -5 -5 -77 -5 -160 1 -155 27 -368 56
-469 9 -28 27 -92 42 -142 59 -208 130 -354 283 -584 126 -190 260 -329 416
-429 175 -112 161 -86 169 -297 4 -99 11 -225 17 -280 10 -103 52 -374 70
-455 6 -25 16 -88 24 -140 15 -102 50 -272 89 -435 28 -114 52 -264 61 -380
10 -115 31 -220 66 -321 32 -93 88 -203 122 -241 58 -65 246 -122 325 -99 37
10 87 66 121 133 12 24 27 43 34 43 7 0 34 -24 59 -53 50 -58 120 -98 203
-116 77 -17 149 10 207 78 81 95 181 333 213 507 27 145 85 398 96 418 23 41
100 395 144 661 9 55 25 150 35 210 38 231 43 275 49 440 l6 169 126 71 c179
100 277 173 440 327 239 225 426 578 535 1008 42 169 48 537 9 660 -7 25 -17
63 -21 85 -12 69 -41 177 -67 250 -74 205 -83 224 -227 465 -45 74 -118 170
-130 170 -5 0 -48 48 -95 108 -47 59 -105 122 -128 139 -258 198 -385 265
-656 347 -103 32 -215 59 -271 66 -52 6 -117 16 -143 21 -57 11 -440 10 -548
-2z m228 -180 c7 -7 9 -43 5 -100 -5 -94 3 -119 39 -119 26 0 39 30 49 118 5
42 12 85 15 95 8 19 59 24 70 6 4 -6 8 -59 10 -117 3 -133 1 -124 27 -120 33
4 48 45 49 129 1 102 4 109 45 109 49 0 60 -28 45 -112 -16 -92 -14 -137 5
-145 27 -10 44 20 71 130 24 96 29 107 49 107 47 0 52 -36 18 -154 -18 -64
-18 -122 0 -129 29 -11 55 24 86 117 40 120 49 134 87 121 39 -14 41 -56 9
-128 -43 -94 -47 -107 -36 -128 6 -10 19 -19 30 -19 21 0 47 34 107 144 21 38
43 71 49 73 20 7 45 -27 38 -51 -3 -11 -26 -56 -50 -98 -52 -91 -57 -128 -18
-128 32 0 72 43 127 137 43 74 67 90 86 55 11 -21 -4 -55 -71 -159 -42 -66
-46 -96 -11 -101 28 -4 84 46 134 120 40 58 69 75 69 39 0 -15 -58 -92 -96
-126 -19 -17 -23 -42 -9 -62 13 -17 15 -17 49 1 19 10 54 41 76 67 29 34 49
49 66 49 36 0 30 -24 -21 -87 -64 -78 -72 -123 -22 -123 14 0 43 21 76 55 30
30 60 55 68 55 22 0 93 -74 93 -97 0 -11 -15 -40 -34 -64 -42 -56 -48 -75 -30
-90 12 -10 27 -7 79 19 35 18 70 32 79 32 18 0 56 -56 56 -82 0 -9 -27 -39
-60 -68 -58 -50 -78 -90 -45 -90 9 0 46 15 83 33 76 38 96 37 117 -3 23 -44
19 -57 -27 -87 -54 -34 -129 -93 -144 -112 -14 -18 -30 -8 -39 26 -9 39 -59
141 -93 191 -65 97 -218 237 -317 291 -22 12 -60 35 -85 51 -86 56 -176 97
-285 132 -136 44 -188 56 -290 64 -44 3 -83 8 -87 11 -5 2 -66 6 -137 9 -145
5 -427 -17 -511 -41 -30 -8 -67 -15 -82 -15 -81 0 -416 -139 -548 -227 -41
-27 -50 -28 -50 -8 0 22 -37 93 -71 136 -33 42 -36 61 -13 80 17 14 26 6 93
-81 31 -41 64 -62 85 -54 26 10 19 53 -18 108 -44 65 -53 94 -31 102 11 5 36
-15 84 -66 47 -50 74 -71 87 -68 27 5 31 63 6 92 -33 36 -64 95 -60 113 6 32
31 19 75 -39 67 -88 143 -124 143 -68 0 12 -20 50 -45 87 -49 71 -57 108 -25
118 37 12 59 -6 96 -76 25 -48 44 -71 60 -75 53 -13 57 23 13 112 -32 63 -33
89 -3 101 21 8 47 -22 68 -78 19 -54 51 -91 74 -87 25 5 25 45 2 117 -23 72
-17 91 30 91 28 0 52 -30 100 -124 18 -36 46 -55 59 -41 6 6 5 43 -2 98 -12
97 -8 107 45 107 34 0 36 -3 44 -85 8 -94 18 -115 49 -115 28 0 28 0 26 119 0
36 5 71 11 78 13 16 40 17 55 2z m-397 -464 c0 -8 -39 -41 -87 -74 -49 -33
-99 -72 -113 -88 -75 -84 -174 -250 -227 -378 -18 -44 -38 -80 -44 -80 -6 0
-17 21 -24 48 -14 55 -19 62 -39 54 -20 -8 -33 -64 -41 -172 -5 -71 -3 -98 9
-127 22 -51 20 -71 -6 -83 -19 -8 -23 -18 -22 -55 0 -46 36 -148 81 -232 25
-46 25 -49 20 -210 -4 -90 -7 -228 -7 -308 -1 -185 -18 -237 -35 -109 -3 26
-15 64 -25 85 -25 48 -25 68 1 110 20 33 20 35 4 160 -9 70 -28 170 -42 223
-35 129 -41 177 -42 301 -1 107 21 316 41 400 26 107 138 299 220 376 61 58
188 127 278 151 103 27 100 27 100 8z m882 0 c110 -23 238 -64 283 -91 22 -13
74 -54 115 -92 68 -63 74 -72 72 -105 -2 -22 10 -66 33 -121 62 -150 41 -218
-26 -84 -110 219 -219 322 -476 450 -46 22 -83 44 -83 49 0 11 -4 12 82 -6z
m-1653 -79 c22 -29 54 -65 72 -78 39 -31 37 -35 -72 -159 -44 -51 -85 -104
-91 -118 -6 -14 -14 -35 -19 -46 -44 -105 -51 -137 -64 -299 -13 -172 -9 -294
15 -406 26 -122 64 -239 101 -309 22 -41 39 -81 39 -90 0 -9 -11 -43 -25 -76
-27 -66 -32 -155 -14 -235 15 -64 75 -198 110 -241 25 -32 31 -53 45 -151 11
-83 22 -125 41 -158 66 -115 65 -109 53 -211 -16 -129 -35 -144 -99 -75 l-24
25 37 53 c41 61 47 103 15 113 -17 6 -32 -3 -69 -40 -30 -30 -54 -46 -66 -43
-32 6 -28 38 9 77 57 60 87 107 87 134 0 20 -5 27 -19 27 -20 0 -98 -58 -140
-104 -14 -14 -31 -26 -40 -26 -19 0 -61 39 -61 58 0 8 41 54 90 101 88 85 106
116 75 127 -33 13 -76 -11 -207 -118 -27 -21 -28 -21 -48 -3 -11 10 -20 26
-20 35 0 19 63 80 102 100 12 7 38 26 56 43 50 48 39 110 -15 90 -15 -6 -114
-71 -179 -118 -20 -14 -48 6 -52 37 -4 30 19 48 121 98 76 37 95 60 78 96 -6
13 -16 24 -24 24 -7 0 -55 -21 -106 -46 -96 -46 -133 -52 -139 -21 -6 28 16
46 77 63 31 9 80 23 109 31 60 17 86 49 62 78 -18 22 -64 19 -160 -10 -125
-37 -150 -33 -150 26 0 30 38 46 155 63 144 22 182 47 157 102 -15 32 -41 31
-172 -6 -58 -16 -119 -30 -137 -30 -29 0 -33 4 -43 39 -16 59 -6 74 44 67 83
-11 225 -18 249 -12 50 12 43 72 -12 100 -22 12 -54 14 -156 9 -117 -6 -129
-5 -141 12 -18 25 -18 64 1 71 8 3 56 -1 107 -9 51 -9 105 -13 120 -10 33 6
61 36 56 60 -6 31 -57 47 -176 52 -85 5 -115 10 -122 21 -14 22 -12 46 5 60
16 13 36 12 165 -15 82 -16 105 -13 120 16 14 25 -1 53 -37 67 -43 18 -114 31
-160 32 -65 0 -93 14 -93 48 0 15 6 37 14 47 12 17 17 18 42 6 52 -24 178 -61
210 -61 36 0 50 21 34 51 -13 24 -53 45 -116 60 -49 12 -144 55 -144 65 0 15
22 44 35 44 7 0 46 -16 86 -35 80 -38 119 -44 139 -20 23 28 -3 55 -95 104
-100 52 -119 72 -93 97 16 16 21 14 80 -24 91 -59 114 -68 133 -52 35 29 21
47 -129 163 -39 30 -44 48 -21 67 12 10 31 7 100 -19 95 -36 118 -37 123 -2 5
32 -30 66 -105 102 -52 25 -63 34 -63 55 0 37 27 30 82 -22 43 -40 53 -45 81
-40 29 6 47 20 47 39 0 5 -29 39 -65 76 -63 65 -81 101 -51 101 8 0 27 -11 43
-24 57 -47 125 -72 143 -51 17 21 2 47 -69 112 -62 58 -65 63 -49 79 16 16 20
15 71 -29 66 -56 101 -68 116 -38 15 26 -3 62 -53 110 -37 36 -45 68 -24 89
21 21 37 13 77 -42z m1224 10 c81 -39 159 -114 187 -178 47 -108 32 -275 -31
-358 -61 -79 -82 -99 -136 -128 -91 -48 -165 -66 -242 -58 -70 7 -177 33 -260
63 -64 22 -76 13 -75 -60 2 -82 35 -140 113 -198 83 -61 173 -90 295 -95 90
-4 120 -14 99 -35 -14 -14 -90 -14 -125 0 -15 6 -91 17 -170 26 -79 9 -150 17
-158 18 -8 1 -16 -5 -18 -14 -5 -29 76 -65 232 -103 163 -41 278 -52 374 -38
68 10 92 0 40 -16 -49 -15 -293 -36 -331 -28 -17 4 -80 16 -138 26 -59 10
-129 28 -155 40 -95 42 -175 85 -191 102 -25 28 -42 140 -42 273 -1 202 60
431 148 558 87 126 217 203 381 226 94 12 143 7 203 -23z m1675 -528 c7 -7 12
-24 12 -38 0 -20 -12 -33 -52 -59 -74 -48 -148 -112 -148 -127 0 -27 23 -25
109 10 131 53 161 48 161 -24 0 -25 -6 -31 -47 -46 -209 -77 -213 -79 -213
-116 0 -23 45 -24 116 -4 77 22 169 29 182 14 16 -20 25 -65 18 -92 -7 -27
-36 -37 -196 -62 -58 -9 -111 -21 -117 -26 -22 -18 -15 -47 13 -54 25 -6 173
1 241 12 50 8 73 -10 73 -56 0 -27 -5 -42 -17 -48 -25 -13 -132 -30 -232 -37
-84 -7 -121 -19 -121 -42 0 -25 42 -32 193 -34 175 -1 184 -4 174 -65 -10 -60
-21 -67 -102 -59 -85 8 -104 10 -172 19 -71 10 -93 2 -93 -34 0 -41 18 -47
172 -66 73 -9 139 -21 146 -27 17 -13 15 -62 -3 -77 -19 -16 -78 -7 -203 31
-109 32 -130 35 -156 16 -27 -20 -8 -49 46 -71 24 -10 52 -22 63 -27 11 -5 58
-20 104 -32 86 -23 109 -41 97 -72 -8 -22 -63 -16 -179 20 -44 14 -103 27
-131 28 l-51 2 -6 55 c-4 30 -12 68 -18 83 -7 19 -8 42 -2 70 16 71 31 168 40
257 6 47 20 130 32 185 20 88 23 125 22 313 -2 195 0 212 16 212 9 0 53 18 97
40 83 41 112 48 132 28z m-507 -360 c1 -13 3 -162 4 -333 1 -170 4 -325 6
-344 4 -30 -1 -37 -54 -79 -81 -64 -85 -57 -63 120 9 79 24 184 32 233 9 50
19 156 24 237 8 135 20 188 42 188 5 0 9 -10 9 -22z m-1781 -339 c19 -12 74
-41 121 -65 95 -48 119 -74 127 -141 5 -47 -20 -128 -41 -136 -7 -3 -31 2 -52
10 -105 38 -166 54 -238 60 -42 3 -81 11 -86 17 -15 20 -21 159 -8 189 12 27
95 84 127 86 8 0 31 -9 50 -20z m1153 -62 c8 -22 -48 -108 -90 -139 -24 -18
-44 -44 -53 -70 l-15 -42 -80 -17 c-44 -9 -110 -24 -146 -34 -36 -10 -73 -15
-82 -12 -27 10 -23 106 7 165 42 82 49 86 207 116 79 15 160 31 179 36 52 12
67 11 73 -3z m-634 -113 c7 -6 -30 -218 -41 -231 -14 -17 -52 -17 -66 0 -6 7
-11 47 -10 88 0 41 -3 89 -7 107 -6 28 -3 33 17 42 20 8 96 4 107 -6z m-1028
-203 c28 -29 39 -71 19 -71 -20 0 -91 41 -97 56 -6 17 14 44 34 44 8 0 28 -13
44 -29z m1033 -138 c15 -53 17 -175 6 -325 -11 -141 -11 -189 0 -291 8 -67 14
-137 14 -155 -1 -72 -49 -63 -58 11 -3 23 -8 125 -10 227 -3 102 -10 250 -16
329 -10 128 -8 189 7 214 9 14 52 7 57 -10z m-140 -25 c20 -109 43 -666 29
-718 -9 -32 -12 -35 -49 -35 -33 0 -39 -3 -42 -23 -2 -13 4 -34 12 -47 23 -34
20 -63 -10 -102 -25 -33 -27 -34 -50 -18 -35 23 -54 13 -115 -58 -30 -34 -71
-80 -92 -101 -53 -55 -56 -63 -67 -173 -13 -139 -12 -276 5 -438 23 -222 29
-448 16 -602 -33 -386 -38 -430 -51 -417 -4 5 -15 52 -23 105 -13 80 -15 178
-11 569 5 480 4 516 -36 866 -9 76 -20 242 -20 307 0 9 -6 17 -14 17 -19 0
-36 -75 -36 -164 0 -79 -13 -131 -30 -121 -5 3 -10 32 -10 63 0 68 -21 226
-49 377 -28 152 -30 168 -37 268 -8 97 1 109 35 53 20 -32 66 -78 124 -121 18
-14 28 -33 32 -60 13 -93 19 -114 60 -200 48 -98 84 -145 113 -145 21 0 201
176 232 228 11 17 24 32 29 32 21 0 59 153 52 210 -3 33 -29 60 -55 60 -12 0
-49 -23 -81 -51 -84 -71 -113 -84 -177 -80 -19 1 -48 27 -48 42 0 6 15 25 33
42 43 43 77 88 77 104 0 9 -20 13 -73 13 -65 0 -78 3 -110 28 -64 49 -107 127
-107 198 0 56 29 40 57 -31 31 -83 78 -125 137 -125 25 0 57 5 72 10 45 18
152 119 200 191 47 71 71 85 78 47z m-847 -60 c42 -55 43 -56 45 -149 2 -52
-1 -95 -6 -97 -10 -4 -89 176 -107 242 -11 42 -6 70 14 64 6 -3 31 -30 54 -60z
m2305 14 c-2 -18 -12 -52 -22 -75 -11 -23 -20 -53 -20 -66 0 -32 -89 -228
-106 -235 -9 -3 -14 1 -14 12 1 47 97 360 118 385 25 28 48 17 44 -21z m157
-10 c12 -22 55 -41 176 -78 118 -35 136 -51 100 -87 -13 -13 -21 -13 -62 -2
-221 62 -246 65 -251 30 -5 -34 39 -63 144 -99 103 -35 115 -46 94 -87 -10
-17 -18 -20 -46 -16 -29 5 -57 17 -166 74 -35 18 -72 13 -76 -10 -5 -26 40
-70 120 -120 67 -41 86 -71 54 -83 -18 -7 -43 6 -119 62 -61 45 -103 56 -113
29 -8 -20 12 -50 87 -129 56 -60 67 -86 36 -86 -7 0 -34 20 -62 45 -94 83
-145 96 -145 36 0 -24 13 -43 65 -93 36 -34 65 -67 65 -74 0 -38 -73 -5 -104
47 -8 14 -31 34 -50 44 -34 18 -37 18 -53 2 -16 -15 -16 -19 -1 -49 8 -18 37
-57 64 -87 l48 -53 -32 -29 c-18 -16 -38 -26 -47 -23 -8 3 -24 36 -35 73 -21
72 -49 99 -83 79 -27 -14 -20 -48 23 -113 22 -33 40 -65 40 -72 0 -21 -62 -53
-103 -53 -29 0 -39 5 -46 22 -22 59 44 235 118 313 26 28 60 70 75 94 36 56
120 224 147 293 28 72 108 218 119 218 5 0 14 -8 19 -18z m-979 0 c0 -22 -36
-52 -81 -67 -49 -17 -52 -17 -78 2 -14 11 -28 28 -29 37 -3 15 3 16 55 11 41
-4 65 -2 83 9 28 16 50 20 50 8z m-910 -51 c0 -11 -45 -41 -63 -41 -17 0 -49
34 -40 43 10 10 103 8 103 -2z m1150 -107 c0 -40 -25 -87 -64 -122 -33 -28
-43 -32 -97 -32 -45 0 -80 8 -135 31 -126 53 -138 85 -22 62 65 -14 76 -14
129 2 32 10 84 35 115 56 32 21 61 36 66 33 4 -3 8 -16 8 -30z m-234 -260 c57
-16 66 -27 36 -43 -13 -7 -28 -4 -57 12 -21 12 -40 28 -43 35 -5 15 -1 15 64
-4z m344 -53 c0 -5 -18 -46 -40 -89 -80 -160 -103 -253 -65 -260 11 -2 24 -8
28 -12 5 -4 0 -57 -11 -116 -11 -60 -23 -131 -27 -159 -13 -97 -26 -145 -41
-145 -17 0 -17 3 -19 105 -2 255 -5 282 -24 306 l-19 24 -69 -17 c-133 -34
-185 2 -65 45 78 28 163 112 215 214 10 18 41 50 70 72 53 42 67 48 67 32z
m-10 -291 c0 -5 -5 -10 -11 -10 -5 0 -7 5 -4 10 3 6 8 10 11 10 2 0 4 -4 4
-10z m-925 -70 c10 -17 -5 -49 -26 -55 -29 -9 -34 0 -19 35 12 30 33 39 45 20z
m210 -201 c17 -17 -12 -26 -108 -32 -66 -4 -94 -3 -99 6 -22 34 20 48 122 41
41 -3 79 -10 85 -15z m255 -48 c15 -29 13 -141 -2 -141 -16 0 -88 107 -88 131
0 13 10 19 33 22 17 2 35 5 39 5 4 1 12 -7 18 -17z m-640 -51 c9 -16 7 -26 -8
-48 -11 -15 -23 -37 -26 -49 -5 -14 -15 -23 -28 -23 -17 0 -19 4 -13 28 11 45
43 112 54 112 6 0 15 -9 21 -20z m656 -177 c4 -20 2 -46 -5 -60 l-12 -26 -30
29 c-40 38 -72 82 -66 91 3 5 28 6 56 5 49 -4 51 -5 57 -39z m-666 -90 c0 -10
-13 -50 -29 -90 -17 -40 -35 -99 -42 -133 -6 -33 -16 -60 -21 -60 -13 0 2 210
18 242 27 53 74 79 74 41z m663 -67 c11 -17 4 -119 -10 -123 -15 -5 -72 77
-79 116 l-6 29 43 -5 c24 -3 47 -11 52 -17z m-152 -88 c12 -24 36 -63 53 -88
17 -25 49 -80 69 -122 33 -66 38 -84 35 -135 -3 -52 -5 -58 -26 -61 -19 -3
-26 5 -43 45 -11 26 -40 89 -64 138 -56 114 -75 168 -75 215 0 64 21 67 51 8z
m-451 2 c12 -8 13 -17 2 -67 -7 -32 -15 -69 -18 -83 -36 -174 -75 -294 -97
-298 -20 -4 -22 15 -6 55 13 32 34 143 53 280 11 82 26 123 45 123 3 0 13 -4
21 -10z m331 -102 c6 -24 22 -65 36 -93 51 -103 91 -212 98 -269 11 -82 -10
-71 -45 24 -15 41 -45 113 -68 160 -57 119 -79 220 -47 220 8 0 19 -17 26 -42z
m-234 -159 c-7 -93 -28 -161 -89 -282 -31 -62 -44 -67 -67 -25 -14 25 -12 33
46 149 34 68 65 138 68 154 13 60 27 95 37 95 8 0 9 -29 5 -91z m208 -138 c18
-37 70 -249 62 -258 -14 -14 -37 9 -47 49 -6 24 -20 72 -30 107 -32 105 -22
173 15 102z m-189 -123 c-4 -13 -11 -47 -16 -77 -11 -61 -21 -77 -44 -68 -23
9 -20 34 14 105 28 60 60 87 46 40z m108 -78 c9 -22 16 -60 16 -84 0 -37 -4
-45 -22 -50 -17 -4 -28 0 -42 16 -30 37 -11 158 24 158 4 0 15 -18 24 -40z
m461 -417 c4 -65 7 -129 6 -142 -2 -42 -22 -104 -31 -95 -12 14 -28 335 -18
364 18 48 35 -3 43 -127z m-884 49 c-5 -113 -22 -197 -41 -197 -22 0 -24 46
-5 154 21 123 24 133 38 128 8 -3 11 -29 8 -85z m112 -26 c9 -13 19 -43 22
-67 12 -74 8 -251 -6 -314 -19 -90 -18 -331 3 -375 24 -52 62 -83 111 -90 35
-4 41 -9 39 -25 -7 -36 -34 -57 -65 -51 -61 12 -124 134 -137 265 -5 46 -7 88
-4 92 2 4 -3 70 -12 146 -15 132 -14 385 2 427 9 23 29 19 47 -8z m654 -133
c1 -87 7 -138 21 -184 33 -107 38 -319 7 -288 -3 4 -10 46 -16 94 -5 48 -12
93 -16 98 -14 23 -40 365 -29 393 3 8 12 14 19 11 8 -2 13 -38 14 -124z m-113
25 c3 -13 7 -88 11 -168 3 -80 8 -178 11 -219 6 -78 0 -121 -16 -121 -6 0 -10
11 -10 24 0 13 -13 75 -30 138 -37 144 -43 266 -16 327 21 45 43 53 50 19z
m-303 -12 c30 -4 78 -3 107 2 65 11 78 1 63 -55 -23 -86 -24 -194 -2 -320 22
-128 27 -228 12 -238 -10 -6 -81 32 -93 50 -4 5 -8 87 -8 180 0 180 -4 221
-26 273 -13 32 -39 51 -52 38 -3 -4 -7 -107 -7 -229 -1 -122 -5 -230 -9 -239
-10 -22 -25 -23 -68 -1 -18 9 -40 20 -48 23 -22 11 -15 81 15 170 28 83 32
164 13 268 -11 60 -10 65 7 78 11 8 24 13 31 10 6 -2 35 -7 65 -10z m-367
-595 c9 -29 34 -87 56 -128 22 -41 40 -76 40 -79 0 -2 -9 -4 -19 -4 -26 0 -74
85 -95 166 -30 116 -14 155 18 45z m272 -25 c9 -35 -5 -54 -23 -31 -7 11 -13
27 -13 37 0 27 29 22 36 -6z m267 -78 c6 -19 -3 -38 -18 -38 -18 0 -28 17 -21
35 7 18 33 20 39 3z"/>
</g>
</svg>
